<svg xmlns="http://www.w3.org/2000/svg" viewBox="0 0 64 64"><g id="_30-Copywriting" data-name="30-Copywriting"><path d="M60.67676,27.32324a4.542,4.542,0,0,0-6.41406,0L46,35.58594V11a.99928.99928,0,0,0-.293-.707l-8-8A1.00012,1.00012,0,0,0,37,2H5A3.00328,3.00328,0,0,0,2,5V59a3.00328,3.00328,0,0,0,3,3H43a3.00328,3.00328,0,0,0,3-3V48.41406L60.67676,33.7373A4.54022,4.54022,0,0,0,60.67676,27.32324ZM35.49451,49.90857l2.59662,2.59662L34.45605,53.544Zm4.50525,1.67712L38.91406,50.5,56,33.41406,57.08594,34.5ZM37.5,49.08594l-1.08618-1.08618L53.5,30.91406,54.58594,32ZM38,5.41406,42.58594,10H39a1.001,1.001,0,0,1-1-1ZM44,59a1.001,1.001,0,0,1-1,1H5a1.001,1.001,0,0,1-1-1V5A1.001,1.001,0,0,1,5,4H36V9a3.00328,3.00328,0,0,0,3,3h5V37.58594l-9.707,9.707a.99426.99426,0,0,0-.2544.43262l-2,7A1,1,0,0,0,33,56a1.02009,1.02009,0,0,0,.2749-.03809l7-2A1.00388,1.00388,0,0,0,40.707,53.707L44,50.41406ZM59.2627,32.32324l-.7627.7627L54.91406,29.5l.7627-.7627a2.53564,2.53564,0,0,1,3.58594,3.58594ZM15,11a.99974.99974,0,0,1,1-1H31a1,1,0,0,1,0,2H16A.99974.99974,0,0,1,15,11ZM8,23a.99974.99974,0,0,1,1-1H39a1,1,0,0,1,0,2H9A.99974.99974,0,0,1,8,23Zm32,6a.99974.99974,0,0,1-1,1H17a1,1,0,0,1,0-2H39A.99974.99974,0,0,1,40,29ZM8,35a.99974.99974,0,0,1,1-1H39a1,1,0,0,1,0,2H9A.99974.99974,0,0,1,8,35Zm0,6a.99974.99974,0,0,1,1-1H27a1,1,0,0,1,0,2H9A.99974.99974,0,0,1,8,41Zm27,1H31a1,1,0,0,1,0-2h4a1,1,0,0,1,0,2Zm-5,5a.99974.99974,0,0,1-1,1H9a1,1,0,0,1,0-2H29A.99974.99974,0,0,1,30,47Zm-2,6a.99974.99974,0,0,1-1,1H17a1,1,0,0,1,0-2H27A.99974.99974,0,0,1,28,53ZM14,53a.99974.99974,0,0,1-1,1H9a1,1,0,0,1,0-2h4A.99974.99974,0,0,1,14,53ZM8,29a.99974.99974,0,0,1,1-1h4a1,1,0,0,1,0,2H9A.99974.99974,0,0,1,8,29ZM8,17a.99974.99974,0,0,1,1-1H31a1,1,0,0,1,0,2H9A.99974.99974,0,0,1,8,17Zm26,0a.99974.99974,0,0,1,1-1h4a1,1,0,0,1,0,2H35A.99974.99974,0,0,1,34,17Z" id="id_101" style="fill: rgb(108, 70, 62);"></path></g></svg>